<svg width="36" height="26" viewBox="0 0 36 26" fill="none" xmlns="http://www.w3.org/2000/svg">
<path d="M35.6414 5.46328C35.6414 5.46328 35.2898 2.98125 34.207 1.89141C32.8359 0.457031 31.3031 0.45 30.6 0.365625C25.5656 -2.01166e-07 18.007 0 18.007 0H17.993C17.993 0 10.4344 -2.01166e-07 5.4 0.365625C4.69688 0.45 3.16406 0.457031 1.79297 1.89141C0.710156 2.98125 0.365625 5.46328 0.365625 5.46328C0.365625 5.46328 0 8.38125 0 11.2922V14.0203C0 16.9312 0.358594 19.8492 0.358594 19.8492C0.358594 19.8492 0.710156 22.3313 1.78594 23.4211C3.15703 24.8555 4.95703 24.8062 5.75859 24.9609C8.64141 25.2352 18 25.3195 18 25.3195C18 25.3195 25.5656 25.3055 30.6 24.9469C31.3031 24.8625 32.8359 24.8555 34.207 23.4211C35.2898 22.3313 35.6414 19.8492 35.6414 19.8492C35.6414 19.8492 36 16.9383 36 14.0203V11.2922C36 8.38125 35.6414 5.46328 35.6414 5.46328ZM14.2805 17.332V7.21406L24.0047 12.2906L14.2805 17.332Z" fill="white"/>
</svg>
